<svg width="22" height="22" viewBox="0 0 22 22" fill="none" xmlns="http://www.w3.org/2000/svg">
<path d="M18.9941 14.7593L16.6302 12.6883C16.1793 12.2979 15.579 12.9789 16.0276 13.376L18.3859 15.442C20.4103 17.4033 17.5827 20.3812 15.5187 18.4589L11.5576 14.138L13.9952 11.4732C14.5035 11.5932 15.0269 11.6358 15.548 11.6011C18.5864 11.4086 20.7156 8.21941 19.7699 5.33779C19.698 5.09598 19.4438 4.95832 19.2019 5.03019C19.119 4.9571 17.3944 6.79109 17.3109 6.84529C17.1385 7.01097 16.8661 7.01097 16.6936 6.84529L15.1537 5.30672C14.9837 5.13618 14.9837 4.86026 15.1537 4.68971L16.8545 2.99156C17.0324 2.81309 17.0325 2.52438 16.8539 2.34653C14.0092 1.0991 10.5558 3.39234 10.3949 6.464C10.3602 6.98234 10.404 7.50251 10.5241 8.00806L10.2072 8.29738L7.80618 5.89633C7.71477 5.80557 7.66297 5.68193 7.66358 5.5528C7.68856 5.04116 7.66297 4.44912 7.25345 4.08123L5.74824 2.57615C5.32654 2.17415 4.66352 2.17415 4.24181 2.57615L2.45323 4.36385C2.03823 4.77986 2.03823 5.45351 2.45323 5.86953L3.95905 7.3746C4.22109 7.63773 4.57759 7.78513 4.94932 7.78391C5.18699 7.79548 5.60138 7.72056 5.77567 7.92705C6.41188 8.56538 7.76352 9.91208 8.40704 10.5571C8.58316 10.7277 8.86287 10.7593 9.05118 10.5864L11.3431 8.49533C11.4723 8.37778 11.5229 8.19627 11.4735 8.02876C11.3303 7.54332 11.2749 7.03716 11.3084 6.53222C11.4607 4.37481 13.448 2.70589 15.6016 2.95075L14.5083 4.04712C13.9818 4.57398 13.9818 5.42793 14.5083 5.95541L16.0477 7.49459C16.5821 8.00501 17.4237 8.00501 17.9581 7.49459L19.055 6.39822C19.2994 8.54832 17.637 10.5328 15.4809 10.6905C14.9727 10.724 14.4626 10.6668 13.9745 10.5218C13.8051 10.4694 13.621 10.52 13.5022 10.6509L6.33509 18.4418C4.45084 20.3989 1.60129 17.5477 3.55015 15.6595L5.8232 13.5319L7.17728 12.2973C7.36924 12.1335 7.39179 11.8447 7.22786 11.6535C7.05784 11.4531 6.74887 11.4391 6.56118 11.623L5.20832 12.8564L2.93405 14.9834C0.965084 16.709 2.3344 20.1059 4.94445 19.9975C5.73301 19.9828 6.48013 19.643 7.00969 19.0589L10.9385 14.8159L14.7856 19.0138L14.8715 19.1045C17.86 21.8698 21.9076 17.5934 18.9941 14.7593ZM8.75988 9.61789C8.17608 9.03377 7.00482 7.86431 6.42224 7.28262C6.16019 7.01889 5.80309 6.87088 5.43136 6.8721C5.20039 6.85626 4.77443 6.93849 4.60501 6.72835L3.0998 5.22328C3.04191 5.16724 3.0413 5.06613 3.0998 5.01009L4.88777 3.2224C4.94689 3.16393 5.04256 3.16393 5.10167 3.2224L6.60749 4.72808C6.81591 4.89619 6.73425 5.32317 6.74948 5.5528C6.74826 5.92434 6.89635 6.28066 7.16022 6.54258L9.53138 8.91378L8.75988 9.61789Z" fill="white"/>
<path d="M4 16.9196C4.02053 18.1457 5.84507 18.1457 5.8656 16.9196C5.84507 15.6935 4.02053 15.6935 4 16.9196Z" fill="white"/>
</svg>
