<svg width="22" height="22" viewBox="0 0 22 22" fill="none" xmlns="http://www.w3.org/2000/svg">
<path fill-rule="evenodd" clip-rule="evenodd" d="M11.734 10.5319L10.841 13.2167C10.8042 13.3273 10.7421 13.4279 10.6597 13.5103L10.2987 13.8713V17.0036C10.4168 16.926 10.5581 16.8809 10.71 16.8809H18.8389C18.9907 16.8809 19.132 16.926 19.2501 17.0036V13.8713L18.8892 13.5103C18.8067 13.4279 18.7446 13.3273 18.7078 13.2167L17.8137 10.5284L17.813 10.5262C17.7586 10.3611 17.6012 10.2462 17.4221 10.2462H12.1267C11.9542 10.2462 11.7952 10.3555 11.734 10.5319ZM18.0889 18.3809H11.46V18.7922C11.46 19.2064 11.1242 19.5422 10.71 19.5422H9.54871C9.13449 19.5422 8.79871 19.2064 8.79871 18.7922V13.8045C8.79871 13.4394 8.94791 13.1136 9.17263 12.8764L9.18676 12.8619L9.47364 12.575L10.3137 10.0493C10.5783 9.27463 11.3013 8.74619 12.1267 8.74619H17.4221C18.2413 8.74619 18.9778 9.26943 19.2373 10.0559C19.2374 10.0563 19.2376 10.0567 19.2377 10.0571L20.0752 12.575L20.3621 12.8619C20.6182 13.1181 20.7501 13.4563 20.7501 13.8045V18.7922C20.7501 19.2064 20.4144 19.5422 20.0001 19.5422H18.8389C18.4247 19.5422 18.0889 19.2064 18.0889 18.7922V18.3809Z" fill="#F1F1F1"/>
<path fill-rule="evenodd" clip-rule="evenodd" d="M4.18544 6.46754L3.29242 9.15239C3.25506 9.26474 3.19162 9.36664 3.10731 9.44976L2.75012 9.80192V12.9335C2.86822 12.8559 3.00953 12.8108 3.16139 12.8108H9.60064C10.0149 12.8108 10.3506 13.1466 10.3506 13.5608C10.3506 13.975 10.0149 14.3108 9.60064 14.3108H3.91139V14.722C3.91139 15.1362 3.57561 15.472 3.16139 15.472H2.00012C1.58591 15.472 1.25012 15.1362 1.25012 14.722V9.73438C1.25012 9.36924 1.39933 9.04352 1.62404 8.80632C1.62991 8.80013 1.63588 8.79404 1.64195 8.78805L1.92594 8.50806L2.76515 5.98497C3.02967 5.21032 3.75267 4.68187 4.57814 4.68187H9.87354C10.6927 4.68187 11.4292 5.20512 11.6887 5.9916C11.6889 5.99199 11.689 5.99238 11.6891 5.99278L12.5266 8.51073L12.8135 8.7976C12.946 8.93007 13.0234 9.06755 13.0701 9.16091C13.2554 9.53139 13.1052 9.98189 12.7347 10.1671C12.3657 10.3516 11.9173 10.2034 11.7307 9.83611L11.3406 9.44601C11.2581 9.36356 11.1961 9.26303 11.1593 9.15239L10.2651 6.46405L10.2644 6.4619C10.21 6.29679 10.0527 6.18187 9.87354 6.18187H4.57814C4.40562 6.18187 4.24663 6.29122 4.18544 6.46754Z" fill="#F1F1F1"/>
<path fill-rule="evenodd" clip-rule="evenodd" d="M12.1316 3.27823C11.9525 3.27823 11.7952 3.39315 11.7408 3.55826L11.7398 3.56144L11.0082 5.75043C10.8769 6.14328 10.452 6.35532 10.0591 6.22402C9.66624 6.09272 9.45421 5.66781 9.58551 5.27496L10.3166 3.08736C10.5763 2.30121 11.3127 1.77823 12.1316 1.77823H17.427C18.2463 1.77823 18.983 2.30167 19.2424 3.08837M19.2424 3.08837L20.0749 5.60763L20.3612 5.89396C20.6173 6.15011 20.7493 6.4883 20.7493 6.83654V11.8242C20.7493 12.2384 20.4135 12.5742 19.9993 12.5742H19.0296C18.6154 12.5742 18.2796 12.2384 18.2796 11.8242C18.2796 11.41 18.6154 11.0742 19.0296 11.0742H19.2493V6.90334L18.8883 6.54237C18.8055 6.45957 18.7432 6.35854 18.7065 6.24737L17.8181 3.55902C17.7638 3.39391 17.6062 3.27823 17.427 3.27823H12.1316M19.3005 6.95462C19.3004 6.95451 19.3006 6.95473 19.3005 6.95462V6.95462Z" fill="#F1F1F1"/>
</svg>
