<svg width="22" height="22" viewBox="0 0 22 22" fill="none" xmlns="http://www.w3.org/2000/svg">
<path fill-rule="evenodd" clip-rule="evenodd" d="M9.33331 18.3542C9.33331 17.9745 9.64112 17.6667 10.0208 17.6667H19.1875C19.5672 17.6667 19.875 17.9745 19.875 18.3542C19.875 18.7339 19.5672 19.0417 19.1875 19.0417H10.0208C9.64112 19.0417 9.33331 18.7339 9.33331 18.3542Z" fill="white"/>
<path fill-rule="evenodd" clip-rule="evenodd" d="M9.33331 11.9375C9.33331 11.5578 9.64112 11.25 10.0208 11.25H19.1875C19.5672 11.25 19.875 11.5578 19.875 11.9375C19.875 12.3172 19.5672 12.625 19.1875 12.625H10.0208C9.64112 12.625 9.33331 12.3172 9.33331 11.9375Z" fill="white"/>
<path fill-rule="evenodd" clip-rule="evenodd" d="M9.33331 5.52083C9.33331 5.14113 9.64112 4.83333 10.0208 4.83333H19.1875C19.5672 4.83333 19.875 5.14113 19.875 5.52083C19.875 5.90052 19.5672 6.20833 19.1875 6.20833H10.0208C9.64112 6.20833 9.33331 5.90052 9.33331 5.52083Z" fill="white"/>
<path fill-rule="evenodd" clip-rule="evenodd" d="M6.8403 3.20136C7.10879 3.46985 7.10879 3.90515 6.8403 4.17364L4.0903 6.92364C3.82182 7.19212 3.38652 7.19212 3.11803 6.92364L2.20136 6.00697C1.93288 5.73848 1.93288 5.30318 2.20136 5.0347C2.46985 4.76621 2.90515 4.76621 3.17364 5.0347L3.60417 5.46523L5.86803 3.20136C6.13652 2.93288 6.57182 2.93288 6.8403 3.20136Z" fill="white"/>
<path fill-rule="evenodd" clip-rule="evenodd" d="M6.8403 9.61804C7.10879 9.88652 7.10879 10.3218 6.8403 10.5903L4.0903 13.3403C3.82182 13.6088 3.38652 13.6088 3.11803 13.3403L2.20136 12.4236C1.93288 12.1552 1.93288 11.7199 2.20136 11.4514C2.46985 11.1829 2.90515 11.1829 3.17364 11.4514L3.60417 11.8819L5.86803 9.61804C6.13652 9.34955 6.57182 9.34955 6.8403 9.61804Z" fill="white"/>
<path fill-rule="evenodd" clip-rule="evenodd" d="M6.8403 16.0347C7.10879 16.3032 7.10879 16.7385 6.8403 17.007L4.0903 19.757C3.82182 20.0254 3.38652 20.0254 3.11803 19.757L2.20136 18.8403C1.93288 18.5718 1.93288 18.1365 2.20136 17.868C2.46985 17.5995 2.90515 17.5995 3.17364 17.868L3.60417 18.2986L5.86803 16.0347C6.13652 15.7662 6.57182 15.7662 6.8403 16.0347Z" fill="white"/>
</svg>
